<?xml version="1.0" encoding="utf-8" ?>
<svg baseProfile="full" height="300mm" version="1.1" viewBox="0,0,200,300" width="200mm" xmlns="http://www.w3.org/2000/svg" xmlns:ev="http://www.w3.org/2001/xml-events" xmlns:xlink="http://www.w3.org/1999/xlink"><defs /><rect fill="#222222" height="300" width="200" x="0" y="0" /><text fill="#FFFFFF" style="font-size:12px; font-family:Arial; font-weight:bold;" x="10" y="20">OVER 10KM Hiking</text><text fill="#FFFFFF" style="font-size:4px; font-family:Arial" x="10" y="280">ATHLETE</text><text fill="#FFFFFF" style="font-size:9px; font-family:Arial" x="10" y="290">XUANYUAN.me</text><text fill="#FFFFFF" style="font-size:4px; font-family:Arial" x="120" y="280">STATISTICS</text><text fill="#FFFFFF" style="font-size:3px; font-family:Arial" x="120" y="285">Number: 11</text><text fill="#FFFFFF" style="font-size:3px; font-family:Arial" x="120" y="290">Weekly: 1.1</text><text fill="#FFFFFF" style="font-size:3px; font-family:Arial" x="141" y="285">Total: 178.1 km</text><text fill="#FFFFFF" style="font-size:3px; font-family:Arial" x="141" y="290">Avg: 16.2 km</text><text fill="#FFFFFF" style="font-size:3px; font-family:Arial" x="167" y="285">Min: 10.8 km</text><text fill="#FFFFFF" style="font-size:3px; font-family:Arial" x="167" y="290">Max: 23.5 km</text><polyline fill="none" points="36.14669652856537,67.03599824329285 36.71780515118735,66.84178401427926 36.93952967526275,66.6398006943491 36.93952967526275,66.48442854781024 37.55095184771926,66.53104022482876 38.316909294517245,66.81070969199209 38.66629339303472,66.70194946484116 39.32474804029334,65.45119576629077 40.5408734602388,64.65878224596963 40.72900335947634,64.55778777761589 41.18589025756228,64.68208864286862 41.50167973124189,64.49563726945053 42.77155655095703,64.15380857411219 43.416573348251404,63.38468843824376 43.73236282196012,63.213771804847056 44.23628219484817,63.29923016917746 44.78051511757076,62.89524433516635 45.15677491601673,62.84086146419577 45.70772676370689,63.151620207354426 45.84882418811321,63.112775433342904 46.15117581188679,62.88747535597213 46.54759238520637,62.258185426238924 46.809630459116306,62.2038021034532 46.93729003358749,62.03288283783331 47.15229563269531,62.03288283783331 47.589025755849434,61.24820313796954 47.59574468084611,60.308130746103416 47.83762597985333,59.989591205456236 48.01231802912662,59.461278805698385 48.44232922734227,58.99511778264423 48.22732362820534,58.1715597148941 47.817469204892404,57.44899676568457 48.61702127661556,56.55549552928278 48.65733482642099,56.11262583898497 48.97984322506818,55.33565528823965 49.32250839867629,55.14918118424248 49.69876819709316,54.49651824796456 50.068309070542455,54.24011343118764 50.39081746918964,53.8360798581416 50.18924972007517,53.1600958486888 50.3773796192545,52.662816449701495 51.002239641646156,52.45302573561639 51.04255319148069,52.28208472923143 50.894736842106795,52.09560319653974 51.351623740192736,51.71486865852057 51.580067189235706,51.74594909987354 52.82306830905145,52.96584646743577 53.380739081738284,52.888146577104635 53.87122060469119,52.44525569814141 53.790593505022116,52.02567250481661 53.92497200446087,51.74594909987354 53.716685330320615,50.339546510818764 53.857782754756045,50.13751970969315 53.98544232919812,50.35508701195795 54.227323628234444,51.90135111753625 54.65733482642099,52.297624836457544 54.83202687569428,52.19661408307002 55.02015677493182,51.65270773803786 55.40985442328383,51.07771683351166 56.10190369540942,51.34967252866045 56.8678611422074,52.18884401959076 57.11646136618219,51.668247972862446 57.86898096307414,51.769259422595496 58.26539753639372,51.707098546226916 58.594624860037584,51.27974115635152 59.39417693167343,50.91454295321455 59.41433370660525,50.68920702358446 59.11198208286078,50.230762914856314 59.26651735720225,49.733464509750775 59.159014557662886,49.42265136792412 59.62933930568397,48.75439884454681 59.58902575587854,48.22600900315592 60.032474804029334,47.68984499898215 60.193729003338376,47.39456467024138 60.207166853302624,47.075971460551955 60.422172452381346,46.83508303241251 61.95408734600642,46.710753224848304 62.21612541991635,46.18234929225582 62.35722284435178,46.44655171400518 62.35722284435178,46.79622998922423 62.995520716678584,47.16921839075076 63.37178051509545,47.23138294782257 63.98320268758107,47.03711853947607 64.64837625980726,47.2780063325481 65.51511758114793,46.99049500821275 66.15341545350384,46.40769847379852 66.36842105264077,46.99049500821275 66.65733482642099,47.15367724360112 67.0,47.736468104798405 66.63717805151828,48.17938619517372 66.99328107503243,48.75439884454681 66.67077267635614,49.32163682542159 66.27435610303655,49.60136907848937 66.07950727883144,50.02873582694883 65.28667413210496,50.75136872551957 64.90369540874963,51.34190237934672 64.50727883537184,51.65270773803786 63.98320268758107,51.543926005862886 63.58678611420328,51.69932843314018 62.908174692012835,51.27974115635152 62.67301231800229,51.3263620783182 62.16237402014667,51.71486865852057 61.92049272113945,52.77936659831903 61.24188129900722,53.49420363291574 61.09406494957511,53.8360798581416 59.46136618137825,53.52528335277748 58.231802911526756,54.286732552573085 57.79507278834353,54.745152402734675 57.230683090689126,54.900548339952365 56.995520716678584,55.25018804688443 56.995520716678584,55.69306271966343 56.73348264276865,56.55549552928278 56.20940649494878,57.39461003155884 55.718924971995875,57.61992625035782 55.60470324748894,57.78308585748164 54.69092945128796,57.759777363433386 54.368421052611666,57.9462451173531 54.18701007839991,57.798624849565385 53.85106382978847,57.837472316023195 53.66293393058004,57.705390849783726 53.172452407627134,57.9462451173531 53.226203807396814,58.33471814802033 52.82978723401902,58.33471814802033 52.554311310173944,58.60664809826994 52.50727883540094,59.00288715626084 52.634938409843016,59.20489059376996 52.171332586789504,59.58558793315024 52.19148936169222,59.73320476023946 51.553191489336314,60.952975033236726 51.30459126539063,63.41576414882002 50.96864501677919,64.87630834142328 51.10302351624705,65.33466487976693 50.861142217268934,65.81632473069476 49.67861142216134,66.53104022482876 49.23516237401054,66.98938687317423 48.637178051518276,66.94277547475212 48.24748040313716,67.04376680223504 48.16685330346809,66.92723833562923 48.173572228464764,67.06707247429586 48.032474804029334,67.1369894479867 47.79731243001879,67.11368379719352 47.68980963045033,67.24574905820191 47.45464725641068,67.23021198047354 46.76931690928177,67.54095293699356 46.3930571108649,67.99929354971391 45.84210526314564,68.11582038741471 45.02239641654887,68.76836740678118 44.363941769319354,68.75283063748793 44.21612541991635,69.06356542495632 44.263157894747565,69.60734827374836 43.98768197087338,69.78601893974701 43.77267637179466,70.22880966592493 40.16461366182193,71.30858686001011 37.389697648381116,71.61931129362347 34.35274356105947,71.79020919562754 33.48600223966059,71.95333865594876 32.48488241882296,72.73014085061004 31.50391937288805,73.67782887550129 31.497200447920477,73.81765070774418 31.63157894735923,73.52247098521912 32.3034714445821,72.91657220677735 32.35050391938421,72.70683689921134 31.12094064950361,71.572702708836 29.340425531903747,70.67936602661939 28.89025755878538,70.13559077811806 28.110862262023147,69.48305539109424 29.23292273239349,69.3121523485097 29.50839865623857,67.70409143514553 29.340425531903747,67.23021198047354 29.12541993279592,67.14475799670618 25.17469204927329,67.5797954680238 24.227323628234444,67.44773078222352 23.300111982098315,66.5698832673661 23.085106382961385,65.7386378625888 22.802911534177838,65.22590255925752 21.828667413210496,64.09942659571243 21.640537514002062,63.95181817426055 21.15005599107826,63.96735591621837 19.92721164613613,63.07393063962081 17.924972004489973,61.232664845003455 16.829787234048126,59.880821303100674 15.52631578949513,58.72318921027181 15.573348264297238,58.59887868449732 15.069428891409189,58.41241251795145 14.47816349385539,57.985092509014066 14.451287793955998,57.7442383634625 13.0,56.92843644198729 13.013437849964248,56.811892601661384 13.302351623744471,56.951745188802306 14.538633818592643,57.73646886230563 14.961926091840724,57.52669203324331 15.109742441214621,57.231449597660685 16.23852183649433,56.392333309479 16.393057110894006,55.71637184207793 17.044792833155952,55.351194776420016 17.004479283321416,55.21133926929906 16.84322508398327,55.219109026380465" stroke="#ff3f00" stroke-linecap="round" stroke-linejoin="round" stroke-width="0.5"><title>2022-11-26 20.4km</title></polyline><polyline fill="none" points="81.5247844827245,71.71448563541344 83.02801724139135,71.66963221906917 83.57112068962306,71.29959084071015 83.62931034481153,71.03046906131931 84.52155172411585,71.12017639382975 85.57866379304323,71.51264511871705 86.00538793101441,71.37808456977655 87.11099137924612,69.43815181194077 88.75,68.38407004657347 89.1379310344928,68.20465087403863 89.7683189655072,68.3616426659064 92.0377155172173,67.61032278776838 92.5808189655072,66.81414242582832 93.39547413791297,66.30951810442639 94.11314655171009,66.38801537218387 95.32543103443459,65.71517984193633 96.22737068962306,66.15252340186271 96.78987068962306,65.8497472752133 97.37176724133315,64.94141392561141 98.00215517234756,64.53770782179345 98.35129310347838,64.52649374233442 98.77801724133315,63.820004445748054 98.99137931037694,62.978939879067184 98.9622844827245,61.91358225218573 99.27262931031873,61.5883657755403 99.6314655172173,60.72485532060091 100.16487068962306,60.18655967964878 99.92241379310144,59.07631665070949 99.25323275860865,57.92120349437755 100.40732758620288,56.60907003854663 100.90193965518847,54.92682489788422 101.51293103443459,54.48943697196955 101.97844827582594,53.637086302602256 102.8997844827827,52.75108325203473 102.66702586208703,51.68562714962172 102.95797413791297,50.96784041195497 103.87931034481153,50.72110014533246 103.88900862069568,50.429497302633536 103.5689655172173,50.10424707134371 103.72413793101441,50.14910922905983 104.3254310344928,49.6219777269871 104.9752155172173,50.28369559303974 105.50862068968127,50.46314382372657 106.51724137930432,51.41645766873262 107.32219827582594,51.28187268269539 107.9622844827245,50.72110014533246 107.85560344828991,50.205186900617264 108.10775862069568,49.70048683328787 107.77801724139135,47.60315300027287 107.95258620689856,47.367621049023 108.14655172411585,47.591937204415444 108.51508620689856,49.89115157375636 109.21336206898559,50.508005835879885 110.0377155172173,49.15092191925942 110.12499999994179,48.72472684107197 111.20150862069568,49.08362806869263 112.2877155172173,50.261264543754805 112.4622844827245,50.21640243154252 112.66594827588415,49.554684162947524 114.24676724139135,49.6556244936437 114.95474137930432,48.89296193649352 116.01185344828991,48.45555015629361 115.98275862069568,48.01813664661313 115.58512931031873,47.46856337525969 115.8372844827245,46.739533394094906 115.67241379310144,46.15630594996037 116.27370689657982,45.38240324814251 116.29310344828991,44.5636307273453 116.92349137930432,43.778500700391305 117.17564655171009,42.82512103280169 117.6120689655072,42.48863212941069 119.63900862069568,42.42133422590996 120.06573275860865,41.65862179110263 120.28879310342018,42.01754594498925 120.34698275860865,42.56714629844646 121.20043103443459,43.02701388351852 121.80172413791297,43.13917641912121 122.59698275866685,42.84755358999246 123.42133620689856,43.19525764427817 124.06142241379712,43.13917641912121 125.2252155172755,42.477415815017594 125.71012931031873,41.93903138586029 125.93318965518847,42.17457489604567 126.0689655172173,42.7914721885536 126.41810344828991,42.97093257305096 127.0,43.91309481506323 126.29202586208703,44.58606293194316 126.6120689655072,44.86646510562423 126.51508620689856,45.225378850795096 126.85452586208703,45.50577940396033 126.57327586208703,46.11144217306719 125.9622844827827,46.58251092315186 125.62284482753603,47.3227577633661 124.58512931037694,48.17515707984421 124.34267241379712,48.67986410577578 123.52801724139135,49.521037365593656 123.31465517240576,49.599546543518954 122.68426724139135,49.39766568772757 122.09267241379712,49.64440890590777 121.2683189655072,49.19578446352534 120.62823275860865,49.476174953182635 120.28879310342018,49.38645007383457 119.93965517240576,49.857504878760665 119.83297413797118,50.94540950136434 119.19288793101441,51.7977809067379 117.39870689657982,52.51556226008688 115.96336206898559,52.28004076682555 115.44935344828991,52.73986797804537 114.19827586208703,53.40156719666993 113.64547413791297,54.0296170317597 112.86961206892738,54.22027431204333 112.53017241379712,54.69130853725801 112.40409482759424,55.64458595272299 112.92780172417406,56.227763381531986 112.43318965518847,56.59785515561089 112.2877155172173,56.93430114887451 112.38469827582594,57.34924979831703 111.85129310342018,57.909988744453585 110.65840517240576,58.381007263291394 109.15517241379712,58.3249337352172 108.70905172411585,58.58287172904966 108.3308189655072,58.3585778554625 107.99137931031873,58.437080762931146 107.63254310342018,58.268860178744944 106.95366379310144,58.61651577088924 107.04094827588415,59.18846291693626 106.40086206892738,59.132389798040094 106.06142241379712,59.56975937207608 106.07112068962306,60.130487066511705 106.25538793101441,60.46692231936322 106.09051724139135,60.65756850867183 105.66379310342018,60.7584987112059 105.58620689652162,61.19586185854132 105.09159482759424,61.86872486393986 105.11099137930432,62.1266545980252 104.63577586208703,63.00136835047306 104.63577586208703,63.4387226341496 105.07219827582594,63.56207865814213 105.20797413791297,64.13400024542352 105.58620689652162,64.70591887733462 105.50862068968127,64.91898584734008 105.04310344828991,65.12083838796389 104.90732758614467,65.69275192051282 104.1993534482317,66.9374946878088 103.80172413791297,68.68683924074139 103.99568965513026,69.0793165932264 103.88900862069568,69.75213167412585 103.64655172411585,70.01004303748778 102.84159482759424,70.31280778426299 101.32866379310144,71.63599214488204 100.52370689652162,71.54628523038264 98.61314655171009,72.07331231194985 97.77909482753603,72.45456438133988 97.22629310342018,73.14978536296258 96.6443965517683,73.17221177354804 95.91702586208703,73.54224689226976 95.19935344828991,74.2374610432671 94.41379310342018,74.18139554778463 94.02586206892738,74.91024477448809 93.62823275860865,74.9887359434797 93.7058189655072,76.03154190759233 93.40517241379712,76.40156746927823 90.36961206892738,77.19767887899798 90.26293103443459,76.2445870790034 90.03987068962306,75.86334806158993 88.72090517240576,76.40156746927823 87.00431034481153,77.9713591302716 83.40625,78.34137820889009 83.06681034481153,75.80728338951303 83.47413793101441,74.7308361792675 83.73599137930432,73.03765324186679 83.79418103443459,72.20787201577332 83.5808189655072,71.96117910048633 81.2435344827245,71.70327228301903 81.27262931031873,71.60235206045763 80.93318965518847,71.5014317458772 76.78232758620288,71.28837744631892 73.0,71.59113869673456" stroke="#4dd2ff" stroke-linecap="round" stroke-linejoin="round" stroke-width="0.5"><title>2022-11-12 16.1km</title></polyline><polyline fill="none" points="133.76896918180864,73.92289108662226 135.23804463341366,73.61767801815586 135.6856535600964,73.06033058006142 136.156216790725,72.95416889444459 137.94665249739774,73.67075860289333 138.5778958555311,73.4849764622777 139.81742826785194,71.16267747362144 142.13581296498887,69.72946669653174 142.8703506908496,69.92852468662022 143.4327311371453,69.59676120172662 145.5904357067193,69.02612604216847 146.3823591923574,68.01755549441441 147.32348565361463,67.42037190440169 148.1039319873089,67.59289188786352 149.04505844850792,66.88953976088669 149.69925611058716,66.78337307400943 150.75515409139916,67.28766407020157 151.38639744959073,66.87626892971457 151.7880977683817,66.09328751190333 152.7177470776369,65.403198313943 153.08501594053814,65.37665634909354 153.72773645061534,64.43441311259812 153.95727948989952,63.492163097529556 153.89989373018034,62.32429451601638 154.2442082890775,61.92615511929034 154.5655685441452,61.03697276330786 155.3230605738936,60.2008704138716 155.0017003188841,58.94007106318895 154.27863974496722,57.559813645653776 155.6444208289613,55.99373472749721 155.7018065887969,55.2372322701558 156.26418703515083,53.949840848275926 156.9298618491157,53.498587251015124 157.67587672692025,52.290812618870405 158.58257173217135,51.46792681836814 158.28416578116594,50.1804983363545 158.66291179601103,49.33105405578681 159.6155154091539,49.07887422411295 159.67290116898948,48.24269551735779 160.45334750268376,47.67196730188152 162.8061636557104,49.88850248651579 163.7358129649656,49.74250431738619 164.5277364506619,49.05232895043446 164.4129649309325,48.3886953589099 164.6769394261646,47.76487671579525 164.3211477152072,45.34921052541176 164.5277364506619,45.043930856511 164.71137088205433,45.17666123480012 165.19341126462677,48.00378633454966 165.98533475026488,48.76033058458415 166.35260361322435,48.33560452630627 166.50180658872705,47.67196730188152 166.96089266735362,47.15432793166838 167.06418703508098,46.623413631052244 168.39553666312713,47.06141808448592 169.70393198734382,48.52142234632629 170.1400637619663,47.605603394447826 172.05674814031227,47.738331175700296 172.68799149844563,46.928689616994234 174.04229543043766,46.251772339615854 173.9045696068206,45.73412735421152 173.5602550478652,45.34921052541176 173.7897980871494,44.24754576072155 173.58320935175288,43.76971237784892 174.35217853356153,42.7742205618415 174.34070138155948,41.73890104274324 175.31625929864822,40.39828283293173 175.3736450584256,39.70805820256646 175.94750265672337,39.27002914559853 178.1740701381932,39.21693461484392 178.89713071205188,38.30105056949833 179.06928799155867,39.30985002951638 180.1366631243145,39.90716183480981 180.8023379383376,40.0133503148827 181.6516471838113,39.6151430705504 182.90265674813418,40.119538708764594 184.08480340067763,39.827520418242784 185.5653560042265,38.63289335524314 185.95557917107362,39.70805820256646 186.38023379386868,39.893888268765295 186.98852284805616,40.91594891740533 187.0,41.4203395434015 186.7360255048261,42.00436836670269 186.86227417638293,42.45566158190195 185.79489904362708,43.676800128640025 185.93262486718595,43.995356137122144 185.34729011694435,44.95101951164543 184.55536663124803,45.627943514453364 183.86673751327908,45.7872192417708 183.0862911795848,46.57032208262535 183.0862911795848,47.340147428258206 182.91413390013622,47.552512244248646 182.47800212539732,47.61887617860339 181.89266737515572,47.40651147023891 181.14665249735117,47.685240079357754 179.7808714133571,46.9817810201057 178.86269925616216,47.63214896147838 178.4954303932027,49.145237384786014 177.7379383634543,50.23358842088783 176.53283740702318,50.817577930225525 175.87863974500215,50.897212661540834 175.74091392138507,51.13611656478315 174.01934112649178,50.8706677564478 171.93049946863903,52.118272476276616 171.1615302869468,52.91460969901527 170.24335812969366,53.180054363721865 169.86461211479036,53.81711936346255 169.8760892667924,54.520541700170725 168.9120085016475,56.86967948138772 169.50882040383294,57.50672653137008 169.3825717322179,57.347465059385286 167.5921360255452,58.0774118819827 165.9279489904875,57.99778151724604 165.33113708824385,58.316302685736446 165.06716259301174,58.03759670567524 164.53921360260574,58.117227046212065 164.21785334753804,57.89160762226675 163.31115834222874,58.32957438426092 163.43740701384377,59.01970085494395 162.6569606801495,58.966614332501194 162.25526036135852,59.470935427132645 162.2208289054106,60.14778437020141 162.40446333691943,60.62555798862013 161.71583421895048,60.983887058566324 160.94686503720004,62.44373609898321 160.53368756646523,63.66468825514312 160.1778958555078,67.48672577107209 159.89096705638804,67.68578716943739 160.12051009573042,67.67251641895564 160.13198724761605,67.91138972183398 159.6155154091539,70.23374635059736 159.83358129649423,70.84418754497892 159.47778958559502,71.73330332599289 158.46780021255836,72.21103468608635 156.70031880983151,73.6972988872003 155.27715196606005,73.76364957439364 152.694792773691,74.58639530393702 151.89139213605085,75.46221572534705 150.938788522908,75.64799506196869 149.35494155157357,76.8953637854429 148.40233793843072,76.81574486008321 148.12688629119657,77.57212269764568 147.49564293312142,77.79770822486898 147.73666312440764,78.87255157901382 147.24314558983315,79.41660473032971 141.056960680231,81.23452204480418 137.88926673756214,81.5397173694364 135.4790648247581,81.69894943050167 135.31838469719514,81.48663997271797 135.14622741768835,80.66393757449987 135.13475026574451,78.77966422983445 135.6856535600964,76.84228450722003 135.88076514349086,74.37407432003238 134.82486716267886,74.00251177011523 133.0,73.92289108662226" stroke="#4dd2ff" stroke-linecap="round" stroke-linejoin="round" stroke-width="0.5"><title>2022-10-30 15.2km</title></polyline><polyline fill="none" points="13.364787840400822,133.67736886367493 13.433185560512356,134.0727839624742 13.661177960748319,134.16504731266468 15.485117162810639,133.92779856579727 15.952501583320554,133.63782728771912 15.986700443376321,133.2687719991809 17.092463584558573,133.37421647412702 17.3546548448503,133.6246467597084 18.19822672579903,133.84871555403515 18.8138062065118,133.7037299076037 20.079164027934894,131.4630221034895 22.062697910121642,130.15812154386367 22.45028499054024,129.98676999320742 23.225459151435643,130.1844833008654 23.670044331869576,129.88132277295517 25.892970234330278,129.3013615338714 26.417352754913736,128.4445958819124 26.975934135494754,127.98325819388265 27.523115896154195,127.70645479581435 28.309689677029382,127.89099045994226 29.290056998084765,127.15284623285697 29.917036098835524,127.06057791000057 30.81760607979959,127.54828116108547 31.205193160218187,127.48237542314746 31.592780240636785,127.16602741647512 32.33375554153463,126.01925944384129 33.34832172258757,125.68972654752724 34.06649778340943,124.33204221034248 34.134895503520966,122.61843980898266 34.47688410390401,122.22298989530827 34.78467384423129,121.3398140809004 35.4458518049214,120.68072374504118 35.18366054468788,119.23071325093042 34.45408486382803,117.91250786579621 35.83343888534,116.3438260491821 35.89043698547175,115.68471039748692 36.44901836611098,114.31373914262804 37.07599746674532,113.91826397961995 37.81697276752675,112.71864862889925 38.83153894869611,111.78267731903179 38.48955034831306,110.66213942661125 38.82013932871632,109.83161687635584 39.74350854975637,109.52840890934749 39.92590246995678,109.08018714145874 39.77770740975393,108.76379437514697 40.735275490849745,108.0650909558899 43.003799873346,110.29301894798118 43.92716909432784,110.09527540343697 44.234958834713325,109.64705558933201 44.69094363518525,109.42294510298234 44.57694743509637,108.73742827653768 44.850538315367885,108.15737275472202 44.47435085498728,105.7712080530764 44.73654211527901,105.44162385155505 45.16972767573316,108.03872471560317 45.5117162761162,108.72424522525398 46.1956934768823,109.10655317058263 47.198860037955455,107.0763532872079 48.37302089930745,107.40593334539153 50.003166561131366,109.29111522468156 50.04876504116692,109.80525099422084 49.592780240636785,110.45121356709569 50.15136162127601,109.63387263020559 49.911969601002056,108.8824417527212 50.219759341387544,108.02554159349529 51.906903103226796,108.18373897092533 52.36288790375693,107.8805271617457 52.71627612411976,107.31365101328993 54.06143128563417,106.70722263029893 54.08423052565195,106.32490763101669 53.61684610508382,105.59982437254803 53.9360354655073,104.5978844890924 53.68524382519536,104.11009517265484 54.52881570614409,102.96312389425293 54.48321722605033,102.14573588935309 55.23559214692796,101.36789414538362 55.64597846736433,99.99677194381366 56.28435718809487,99.69354104291415 58.45028499048203,99.61443721332762 58.92906903102994,98.74429191136733 58.84927169093862,98.01916637776594 58.997466751141474,99.50896536566142 59.24825839139521,99.83856460549578 60.44521849270677,100.41865723820229 61.85877137433272,100.1286112453381 62.59974667511415,100.48457669178606 63.386320455989335,100.44502502365503 63.37492083595134,100.65596711469698 62.70234325522324,101.15695320934174 63.557314756151754,100.39228944736533 64.82267257757485,99.69354104291415 65.48385053832317,99.03434099243896 65.91703609877732,100.04950768046547 66.32742241921369,100.30000213749008 67.0,101.4601806972787 66.70360987971071,102.27757301190286 66.48701709939633,102.22483817892498 66.8974034198909,102.69945090572583 66.40721975936322,103.56956973871274 64.5718809372629,105.33615673065651 62.770740975334775,106.72040588609525 61.59658011398278,107.1422693656641 60.04623179225018,107.24773502170865 59.03166561113903,107.82779460100573 58.72387587081175,108.26283758752106 58.153894870134536,110.24028736549371 57.54971500945976,110.7939679150586 56.238758708001114,111.25536657232442 53.69664344523335,111.0971729314042 51.35972134262556,113.12731004602392 50.162761241255794,113.39096189169504 49.66117796074832,114.16873172250052 49.70677644084208,115.42106320156017 49.50158328056568,116.17245630103571 49.09119696012931,117.12157822214067 48.441418619360775,117.82023298849526 47.290056998084765,118.08387532130291 44.30335655476665,117.9256899857719 42.946801773272455,118.55843017373991 42.103229892323725,119.69208197965054 41.78404053201666,121.61663102611783 40.689677010755986,123.76523776055546 40.290690310357604,127.83826601118199 39.46991766942665,131.0016951183352 38.432552248297725,131.97707024584815 36.96200126665644,132.72836772380106 33.507916402770206,134.0596034785267 28.708676377485972,136.6034121412813 28.184293856902514,137.07789944576507 27.8081063964637,137.8159873694094 27.876504116575234,139.0944511884445 27.580113996227738,139.568929410103 21.663711209606845,141.37456682401535 14.880937302077655,141.98083362223406 15.7131095630466,141.7040599994798 15.40531982271932,138.9890113487345 15.88410386320902,137.51284462171316 16.169094363518525,134.67908478016034 15.758708043023944,134.33639336079068 13.0,134.0859644450975" stroke="#4dd2ff" stroke-linecap="round" stroke-linejoin="round" stroke-width="0.5"><title>2022-10-23 15.7km</title></polyline><polyline fill="none" points="96.22678239428205,93.0 96.32803685255931,93.33103880607814 96.22082624968607,93.53104063360661 95.78602769371355,93.90345625514601 95.76815925989649,94.03449089400965 95.97066817636369,94.06207710142917 95.89323829652858,94.08276674964145 96.03618576700683,94.15862873893639 96.02427347781486,94.25518023873883 96.28038769570412,94.41380026091065 96.54245805821847,94.42069677518157 96.22082624968607,94.84827928791492 96.26847540651215,95.15861974289146 95.57756263262127,95.6551615118151 95.35718528233701,96.00687639470561 94.4339828689117,96.93787755928497 93.64181563680177,97.48267971043242 92.98663973051589,97.73094252782175 92.54588502994739,98.73777684431843 92.15277948614676,99.05499551365938 91.84901611146051,99.62046858626127 91.40230526626692,100.13766543250676 91.18192791595357,101.01344308412081 90.72926092616399,101.227213861981 90.49697128665866,101.66164916997514 90.30041851478745,102.1236646140751 90.27659393637441,102.53051142500772 90.12173417667509,102.97183401558141 90.16938333353028,103.15801612092764 89.77032164516277,103.79241056240426 89.96687441700487,104.54402237271279 90.28255008094129,105.06118161823542 90.30041851478745,105.69555823312112 90.34806767161353,105.5645461581953 90.16938333353028,105.75761649597553 89.84179538040189,105.80588399442058 89.46655827041832,106.12306955709937 89.09132116046385,106.9367126865618 88.81733850872843,107.13667433238152 88.38253995278501,107.75034604241955 87.79883778170915,107.86066845689493 87.5367674191657,107.76413635406789 87.42360067175468,107.57796691012481 87.58441657604999,106.88155074933456 87.47720597317675,106.28855708709307 87.22109175525839,105.68176750034036 87.36999537030351,105.71624432706449 87.34021464732359,105.96447696142423 87.54272356379079,106.4126724692469 87.60824115440482,106.90223648107349 87.27469705668045,107.75034604241955 86.50635440295446,108.15715905543766 86.2859770526702,108.41917292281141 85.89287150889868,108.55017947644956 85.60697656797129,108.81219182362838 84.81480933586136,109.18452341575903 84.21919487559353,108.99146284567541 83.40915920963744,108.90872243290505 83.11135197951808,109.21899845966254 82.96244836447295,109.83954624969192 82.53360595306731,110.32219060086209 82.61103583293152,110.41182417318487 82.44426378401113,110.81862120328151 81.9320353482035,111.26678459491814 81.26494715272565,111.25988979596877 80.95522763338522,112.60436231986387 80.53829751122976,112.94909456683672 80.02606907542213,113.05251389890327 80.09754281063215,113.05251389890327 80.06180594302714,113.2248791015154 79.76995485750376,113.69371023415442 79.69848112226464,114.16943262627319 79.09095437280484,114.74167397687415 78.94205075775972,115.21049461428629 78.2213572608307,115.899930835556 77.83420786168426,116.01023997997981 77.42919002872077,116.30669491583103 77.14925123238936,116.75482200796978 76.58341749513056,117.12710995390808 76.60128592894762,117.96130329564767 76.37495243406738,118.20949106814078 76.26774183119414,119.2780669292697 76.01162761330488,119.5951894265745 75.86272399823065,120.09155209549499 75.94611002266174,120.59480497901677 76.36304014487541,120.8085139772229 76.35112785562524,121.04290371657407 76.54172448292957,121.34623041127634 76.4881191814784,121.89083629733068 76.29156640963629,122.60088550089131 75.83889941981761,123.02139657070074 75.66617122635944,123.40743722320622 75.35049556239392,123.69007273542229 74.78466182519333,124.53797220113483 74.93952158483444,124.51729185257864 75.320714839414,124.74477534001198 75.6006536357163,124.64137384943751 76.55363677212154,124.91021739684948 77.02417219572817,124.84817667285097 77.7389095480321,125.66848832432879 78.42982232192298,125.74431495056342 78.69189268440823,126.53704278291843 78.5846820815932,126.8058788124763 79.20412112027407,127.0816069661305 79.60913895323756,127.14364564611606 80.2762271487154,127.7640293239092 80.06180594302714,128.21208067172847 80.07967437681509,129.0047796488434 81.0862628146424,129.38389327470213 81.30664016492665,129.65271801577182 81.80100016694632,129.79746935794537 82.17028113233391,130.1627927997106 82.55147438688437,130.21793578976212 83.03392209968297,131.24496578335675 83.21856258236221,132.1203414842821 83.45085222186754,132.50633032922633 83.75461559658288,132.5821493084295 83.72483487357385,132.89920957576396 83.23047487155418,133.27140886754205 83.05774667809601,133.6918537583697 83.05179053350003,134.84978686730756 83.20665029317024,135.16683653255313 83.27216788378428,135.64240825126763 83.39129077582038,135.80782371952228 83.71292258438189,135.91810047422769 84.18345800798852,136.47637379324442 84.66590572075802,137.1380251095252 84.71951102218009,137.40681911300635 84.5110459611169,137.7031804974613 84.42765993668581,138.13048998145678 83.91543150087819,138.247655014864 83.826089331822,138.3441437139336 83.98094909149222,138.6818530797318 83.92734379007015,138.94374898132082 83.67122957215179,139.29523925995454 83.3019486067933,139.52956510047807 83.52828210170264,139.77767393163958 83.52232595710666,140.30145626165904 83.09348354570102,140.5426704481797 82.89097462923382,140.81834275391884 82.78972017098567,141.28698310255277 83.03392209968297,141.535085505835 82.95649221984786,142.08642093103845 83.7069664397568,142.81693346764223 83.60571198153775,142.99611458656727 83.74270330739091,143.46473989090737 84.04646668210626,144.10564866913046 84.3919230690808,144.47778647163068 84.37405463526375,145.12557703639322 84.52295825030887,145.2427299887422 84.64208114237408,145.15314245515037 84.45744065969484,145.03598934809997 84.594431985548,145.18759921283345 84.57060740713496,145.5390571417156 84.67186186538311,145.76647012554167 84.77311632360215,145.74579624943 84.89819536029245,145.48392660658283 85.62484500178834,145.47014396583108 86.20259102823911,145.6010789401771 86.8101177776698,146.02833867789013 87.14961802004836,146.09725128683203 87.72140790190315,145.8974045280629 88.34084694052581,145.97320854035206 89.00793513600365,146.2212938065495 89.07345272664679,146.41424838649255 89.70480405451963,146.95176182290015 89.97283056162996,147.0 90.37784839459346,146.86217654586653 90.038348152244,146.57274638093804 90.33615538239246,146.33844486695307 90.41954140682356,146.06279499111406 90.63991875710781,145.83538300047076 91.60481418273412,145.61486155435705 92.14682334155077,144.98085840419662 92.7424378018186,144.93261879154306 92.60544647596544,144.94640154150693 92.74839394641458,144.87059638202481 92.73052551262663,144.55359207003494 93.09980647798511,144.25726061283785 93.4631312986894,143.57500419796997 93.46908744331449,142.98233144035476 93.91579828853719,141.92102077395975 94.48758817036287,141.37657574175682 94.97599202775746,141.12847275875538 95.1606325104367,141.08023040668922 95.36909757152898,141.21806560728146 95.45843974055606,140.96307026593422 95.66094865705236,140.88036886830378 95.90515058574965,141.09401393932785 95.86345757354866,140.91482779623766 96.1255279360339,140.74942478251614 96.30421227411716,140.84590992287121 96.53650191362249,140.74253298151598 96.66158095028368,140.5702377291891 96.59606335966964,140.3910502025028 96.72709854089771,140.2394296179118 96.59010721504455,139.9706468395816 96.69731781788869,139.92929554838338 96.75687926393584,140.10848429482576 96.8521775775589,140.0740249572773 96.98321275881608,139.40551034454256 96.68540552869672,138.17184236930188 96.73901083008968,137.59290664522268 97.06064263865119,137.3447898221275 97.26910769974347,136.78652365147718 97.59669565287186,136.33852895654854 98.25782770375372,135.7802545028244 98.59137180147809,135.73200834666932 99.09168794812285,135.01520426887146 99.53839879328734,134.85667926710448 99.91363590324181,134.5396281518406 99.96724120466388,134.22946801780927 100.87853132889722,133.59535844014317 101.11677711296943,133.2576237450121 101.59922482576803,133.1680203802971 101.76004073006334,133.04395398753695 102.05189181555761,133.07841689719498 102.35565519030206,133.95376892999047 102.63559398660436,134.04337125648453 102.85001519232173,134.45691892146715 102.80236603549565,134.59476758271194 103.02869953037589,134.7739704234191 102.96913808435784,134.97384995631728 103.53497182161664,135.2219754534599 103.90425278697512,135.54591570844786 105.0776132736355,135.74579296620504 105.27416604556493,135.54591570844786 105.39924508219701,135.55280803749338 105.58388556487625,135.8905313023497 105.48263110665721,135.8767467122234 105.58388556487625,135.9249927654455 105.51836797423312,135.67686984042666 105.66727158930735,134.56030544365785 106.04250869929092,133.01638364722749 106.79298291917075,132.91988736778876 107.45411497005261,132.4856524110728 107.76383448939305,132.45808184375346 108.03781714112847,132.75446485503198 108.38327352807391,132.47875977030344 108.96697569909156,132.42361861883546 109.36603738748818,132.65107557961164 109.44942341191927,133.1680203802971 109.66384461760754,133.34722699133272 109.9199588355259,133.36790464673686 109.86039738947875,133.2576237450121 110.02121329374495,133.1542352367469 110.3249766684894,133.50575552169175 111.45664414294879,133.47818536913837 111.99269715719856,133.2093757941111 112.54661860523629,133.13355751618656 112.80868896775064,132.96813552466483 113.20775065611815,132.2168389014987 113.17796993308002,131.76881401736318 113.27326824676129,131.82395570131484 114.0356547558913,131.203609171469 114.34537427517353,131.27942960733344 114.85760271101026,130.81072010038042 115.23283982096473,130.65907809563214 115.92375259488472,130.514328592908 116.06074392073788,130.68664939445443 115.93566488404758,130.2248286603717 116.4121564522793,129.99047066677304 116.47171789829736,129.86639845989703 116.59084079033346,130.04561379697407 116.65040223638061,129.92154169100104 116.76952512841672,129.94911328971648 116.76356898382073,130.48675722398912 117.0613762139401,130.8520769519164 117.19241139519727,131.27942960733344 117.46043790233671,130.4385073014637 117.88332416908816,130.06629245924705 118.15135067619849,129.48728753202158 118.37172802648274,129.25292698907288 118.42533332793391,128.85313360494183 118.80652658251347,128.5567335397427 119.06859694499872,128.06732594469213 119.10433381260373,127.72267058869329 118.99116706519271,127.40558611367305 119.06859694499872,127.20568426937825 119.37831646433915,126.77141271442088 119.72972899588058,126.66801431510248 120.05731694903807,126.22684603944799 120.27173815469723,125.57198158640676 120.23004514249624,125.03429867448722 119.91436947853072,124.73098848371592 119.7237728513137,124.1243640306493 119.98584321379894,123.59356318083883 119.89650104477187,122.4216504814467 120.1645275518822,122.29067074441264 120.13474682887318,122.34582013823092 120.27173815469723,122.37339481830713 120.35512417915743,122.26309603067784 120.08709767201799,121.53925578293274 120.53976466183667,121.44274316582596 120.84352803655202,121.26350508371252 121.37958105077269,121.2359299520831 121.63569526869105,121.31865531332005 122.43977479002206,121.05669132305775 122.344476476399,120.78093866048584 122.4635993684351,120.07776429268415 123.35702105885139,119.08503511743038 123.41658250484033,118.66449962363549 123.58931069832761,118.50593638290593 123.24385431135306,117.91993857851776 123.41658250484033,117.67174974556838 123.47614395088749,117.16847515499103 123.66674057816272,116.78239896299056 123.12473141934606,116.38253201669431 123.1068629854999,116.1894919566912 123.37488949263934,116.01713429555093 123.63695985515369,116.08607741261221 123.81564419320785,115.87235352139396 123.64291599974968,115.11397298352676 123.73225816877675,114.6520461327309 124.33382877364056,114.54862924217014 124.44699552108068,114.47968456075614 124.48273238868569,114.13496010141534 125.12003986118361,113.9694917379311 125.04856612594449,114.07980402514659 125.09621528277057,114.2245886295641 125.16173287341371,114.05222597019747 125.21533817480667,114.27974458795507 125.13195215037558,114.4865790320473 124.46486395489774,114.50036797253415 124.46486395489774,114.12806559433375 125.10812757196254,113.99706982658245" stroke="#ff0000" stroke-linecap="round" stroke-linejoin="round" stroke-width="0.5"><title>2022-09-28 23.5km</title></polyline><polyline fill="none" points="155.1038757555798,93.61064010008704 155.0495821006043,93.60615013022107 155.0340696277708,93.42206097179223 154.96814161812654,93.35022109169586 154.60747662428184,93.44002092351366 154.58420791500248,93.31879110735099 154.65013592461764,93.2918511029311 154.63462345178414,93.33675110114928 154.5803297967941,93.21552100103872 154.35539894041722,93.09429056759473 154.22742103936616,93.13470074911311 154.04127136513125,93.04490029543376 153.9792214737099,93.08980054512722 154.01024641943513,93.0 153.94431840979087,93.09429056759473 153.84736545446503,93.04939032245966 153.96758711907023,93.09878058960021 153.76980309019564,93.08531052222679 153.54487223381875,93.16164084955017 153.4517973967013,93.23797104473124 153.47118798775773,93.3457310952981 153.13379170317785,93.5702303547805 153.16481664890307,93.50288069696035 153.09888863927335,93.52982057243571 152.90498272860714,93.40859100318266 152.48614596156403,93.64206987638681 152.34653370588785,93.35471108763886 151.76869409208302,93.28736110060345 151.54764135392907,93.50288069696035 151.50886017180164,93.62411000696738 151.80359715601662,94.09106423456979 152.03240613058733,93.77676866393085 152.00525930311414,93.63308994259933 152.0905779038003,93.63308994259933 152.08669978557737,93.700439401513 152.1991652137658,93.7677887575519 152.34653370588785,93.72288919830316 152.50165843442664,93.83513801073423 152.59861138975248,93.81717821994607 152.7227111725806,93.63757990972226 152.7227111725806,93.7049293617747 152.80415165505838,93.65104980836259 152.74597988187452,93.63757990972226 152.86620154646516,93.43553093626178 153.056229338923,93.30981110771609 153.12991358498402,93.39063103864828 153.01744815679558,93.39063103864828 153.1260354667611,93.26042107698231 153.07174181177106,93.33675110114928 153.16481664890307,93.3277711051669 153.00193568396207,93.3277711051669 153.35096632315253,93.28287109781377 154.0063683012122,93.02245015343942 154.05290571975638,93.08980054512722 154.4950111960934,93.19307094592659 154.60359850607347,93.28736110060345 154.5958422696567,93.44900089663497 154.95650726348686,93.37267106679428 155.04182586418756,93.66451970289563 155.5072000497894,93.67349963028755 155.7127403150953,93.7588088493685 155.88725563469052,93.63308994259933 155.84459633434017,93.7049293617747 155.62742171440914,93.7588088493685 155.798058915796,93.73186911380617 155.7709120882937,93.77676866393085 155.54985935013974,93.66900966682078 155.6506904236885,93.77227871096693 155.8833775164967,93.82615811624783 157.77977732282307,93.06286040080886 157.88060839637183,93.26042107698231 158.03961124313355,94.23025155723735 158.12105172559677,94.3290293906357 160.11828260551556,94.32004959675396 160.23074803368945,94.98903923495163 160.38199464401987,99.72555475930494 160.57977867289446,99.85574563331465 162.27451633215242,99.88268162822715 163.3565113136865,99.98593612304467 163.40304873224522,102.1138227670308 163.3565113136865,103.0295904905579 163.2595583583461,103.4201327084229 163.08504303873633,103.53235684424362 163.01911502912117,103.71191486781026 162.767037345242,105.69149364167606 162.8174528820091,106.1583201392641 162.77091546346492,106.71042587280317 162.43739729710796,108.03006524997545 162.46066600638733,108.21409345659049 162.71662180847488,108.70333544490495 162.73601239954587,108.94571020086369 163.58144217003428,109.72668647171304 163.91883845461416,109.88377773042157 163.98088834602095,109.96905560814776 164.12437871992006,110.93403063913138 164.1592817838391,111.70599547574238 164.04293823745684,112.51385119785118 163.83739797215094,113.01202152418409 164.13989119278267,113.43837905087275 164.9387835447269,114.86103700710373 164.35706581272825,113.83331708635887 164.3415533398802,113.73009498627653 164.41911570413504,113.7480466731904 164.66343715159746,114.30005748272379 168.09169365222624,120.37620823419638 168.4911398281838,121.26467425571172 167.32382624597813,121.9826135416697 165.7105290692125,122.85758627083487 161.98365746614581,124.6568347075845 161.018006030994,125.10102690924032 160.75817211069807,125.15935484644797 161.64626118159504,128.6813222130986 161.6074799994385,130.88857778922466 161.44847715269134,132.97908814261973 161.4872583348333,134.40111701527712 161.5919675265759,134.84969707486744 162.54598460707348,137.3706323535116 161.75097037333762,137.8819789160334 160.5991692639509,138.50096947550264 159.26121848032926,139.45186563095194 157.0739598079963,140.34891873428933 157.24459700938314,140.76155705228666 157.2795000733022,141.22352799293367 157.05456921693985,143.1655472319726 157.05069109870237,143.67682680301732 156.87229766089877,143.703736090436 156.87229766089877,143.75755461617155 157.0739598079963,144.69936821869123 157.2368407729664,145.15232857305818 157.82631474139635,146.23762065445044 156.71329481416615,147.0 157.17866899976798,146.63675030309605 157.20581582724117,146.40355139507665 157.32215937365254,146.20174365573257 157.67506813108048,146.03132751460362 157.60526200322784,145.93266523814236 157.40747797435324,145.9819964038761 157.3648186740029,146.03581215829763 157.45013727468904,146.12998957105083 157.33379372827767,146.0133889352437 157.16703464511374,146.02235822582225 157.19418147260149,145.9640578045146 157.28337819151056,146.02235822582225" stroke="#ff2a00" stroke-linecap="round" stroke-linejoin="round" stroke-width="0.5"><title>2022-09-18 21.4km</title></polyline><polyline fill="none" points="18.78198685735697,190.71803436955088 19.470815616543405,190.8025062502711 19.616930807882454,190.98351722150983 19.512562814052217,192.06957727318513 19.251642829505727,192.3833261113905 19.992655585636385,192.1902500010474 20.357943563954905,191.9127025442067 20.284885968314484,191.59895246650558 20.535369153425563,191.74376029735868 21.328565906442236,191.7316929848239 22.361809045250993,192.12991365240305 22.956706609926187,192.00924086338637 24.167375338205602,189.87331226777314 25.962504831841215,188.77516458011087 26.42172400461277,188.61828551255894 27.0896791650448,188.76309696683893 27.465403942740522,188.5217444452428 29.58407421724405,187.9183610017135 29.782373405469116,187.38738104301592 30.42945496708853,186.7839918532336 30.867800541163888,186.55470315966522 31.713181291066576,186.63917799284536 32.558562040969264,186.0116492299785 33.184770003834274,185.93924185232027 34.16582914569881,186.33748188491154 34.645921917282976,185.96337764976488 35.28256667952519,184.9617379452975 36.201005025126506,184.64796955825295 36.84808658680413,183.56184183563164 36.93158098182175,181.860221822506 37.53691534593236,180.7257949735358 38.19443370698718,179.94134455622407 37.860456126742065,178.6741445051739 37.43254735210212,177.75692462748702 37.192500966310035,177.57589355367963 38.44491689209826,176.23625505417294 38.5388480865513,175.51211986063572 39.07112485502148,174.28107992516743 39.645148821000475,173.89486869527173 40.32354078080971,172.7724351978104 40.74101275607245,172.59139654600585 41.22110552765662,171.93965512036084 40.89756474684691,170.96203629285446 41.231542326975614,170.09303504073614 42.11867027444532,169.91199231486098 42.22303826821735,169.51369734897162 42.03517587936949,169.2119578513375 43.01623502117582,168.49984960507572 43.00579822185682,168.70503377385467 45.07228449935792,170.6120226625062 45.761113258544356,170.5396059208506 46.61693080782425,169.7792274742751 46.48125241592061,169.28437540052255 46.71086200227728,168.71710341981816 46.38732122146757,166.47212821598805 46.606494008447044,166.17038100960053 46.7839195979177,166.48419808835024 47.11789717816282,168.71710341981816 47.49362195591675,169.32058415860956 47.911093931179494,169.54990603727492 48.098956320027355,169.44127993928123 48.986084267438855,167.63083038148034 50.134132199396845,168.06534078616096 51.313490529486444,169.4171407929316 51.67877850786317,168.523988937377 53.369540007726755,168.82573017857067 53.24429841514211,168.71710341981816 53.995747970591765,167.90843443405902 55.18554310005857,167.41357458448329 55.17510630073957,166.89457302009396 54.768071124795824,166.24280040888698 55.04986470815493,165.45825457012688 54.851565519871656,165.01166462964466 55.216853498190176,164.33574153301743 55.550831078435294,164.154690051917 55.61345187475672,163.0200945005854 56.37533822952537,162.0182617792234 56.41708542709239,161.37853285940946 56.82412060297793,160.9681389119578 58.92191727866884,160.91985717805073 59.51681484346045,160.34047484377516 59.65249323536409,159.954218387531 59.777734827948734,160.94399804745626 60.29957479698351,161.34232168566814 61.551990722771734,161.65615149217774 61.64592191722477,161.45095517385926 62.12601468880894,161.35439207812306 62.86702744488139,161.63201076719997 62.13645148818614,161.35439207812306 62.36606107460102,161.3302512919836 63.378430614597164,161.72857363767253 64.53691534593236,161.35439207812306 65.66408967913594,160.32840434850368 65.89369926549261,160.58188449244335 66.07112485502148,161.3664624693629 66.37379203707678,161.4992366923325 66.80170081171673,162.03033210315334 67.0,162.98388382618577 66.81213761115214,163.32184969214723 66.57209122530185,163.33391988391668 66.92694240430137,163.8650071093798 65.66408967913594,165.27720479616983 63.159257827559486,167.41357458448329 62.36606107460102,167.6911791436214 60.72748357168166,167.8239463127029 59.88210282177897,168.27052570382511 59.54812524153385,168.65675517770433 59.24545805953676,170.2861469782365 61.10320834943559,171.7948232079725 61.77116350980941,172.57932729274762 60.602241979097016,173.82245395020436 60.11171240819385,173.70176261055167 60.01778121374082,173.82245395020436 59.51681484346045,175.75349874777748 58.75492848851718,177.52761855418794 58.27483571699122,178.25174149170925 57.82605334353866,178.45690885682416 57.50251256278716,178.86724252664135 57.85736374172848,179.21723189242766 57.56513335905038,179.9654815691756 57.40858136839233,182.00504149351036 56.13529184379149,184.76864980495156 55.592578275944106,185.60134017444943 52.336296868918,189.1975302734645 51.67877850786317,189.39061123444117 51.04213374562096,189.8250422525016 50.280247390735894,189.83710975814756 49.873212214850355,190.27153914779774 47.56667955155717,190.71803436955088 47.03440278308699,191.09212367226428 45.81329725543037,192.4919312859347 44.529570931510534,193.28836620734364 41.21066872822121,194.27786884413945 39.53034402785124,194.30200295212126 38.246617703931406,195.1708275833662 36.16969462693669,195.8345087969501 35.80440664861817,195.653505196271 35.51217626588186,195.71383976038487 35.47042906837305,195.52076904769638 35.042520293733105,195.54490290387912 34.593737920280546,195.70177284997771 34.1449555469444,196.20858203360694 33.36219559336314,196.3533842614852 32.27676845766837,196.90845783804252 31.94279087742325,196.94465819888865 31.671434093557764,196.54645362490555 31.379203710821457,196.57058727335243 31.139157325029373,197.19806041662378 30.773869346710853,197.4997290207466 25.68071124854032,199.02012715981982 15.066486277559306,200.04578161247628 14.638577502861153,199.8285849358872 13.532276768411975,197.47559556052147 13.187862388847861,195.49663518657326 13.0,192.1178463790202 19.34557402395876,192.4919312859347 19.575183610315435,190.83870846651553 18.82373405492399,190.8025062502711" stroke="#4dd2ff" stroke-linecap="round" stroke-linejoin="round" stroke-width="0.5"><title>2022-09-12 16.5km</title></polyline><polyline fill="none" points="77.45478582760552,186.48366352955782 77.42622950818622,186.30757038623415 77.76890534115955,186.5607041900148 79.03490216820501,186.4946693415186 79.58699101005914,186.18650618464017 79.6250661025988,185.86733627923968 80.53886832360877,185.92236564015184 80.91010047594318,186.18650618464017 81.5478582760552,186.3295820447238 82.06187202542787,186.20851786765706 83.09941829717718,184.2934847589786 84.72712850343669,183.2809248751073 85.11739820207004,183.11583269487892 85.6599682707456,183.26991873753286 87.92543627711711,182.543511194468 88.87731359066674,181.43187812620454 89.26758328930009,181.22275776296738 89.92437863565283,181.343827495999 90.80010576412315,180.73847748139815 91.34267583285691,180.65042628919036 92.29455314646475,181.05766245494306 93.3225806451519,179.7589039483064 94.14119513484184,179.49474777550495 94.7123215229949,178.50415640641586 94.75991538871313,176.94120498673874 95.10259122162824,176.65502834726794 95.32152300368762,175.91756968608388 95.93072448438033,175.23514079290908 95.68323638284346,174.09041173074365 95.09307244844967,172.95667778719508 96.21628767845687,171.74588089541066 96.27340031729545,171.1514847541912 96.72078265470918,170.03973509058414 97.09201480698539,169.87462278376188 97.77736647275742,168.8399132786144 98.65309360128595,168.0033324284741 98.44368059228873,166.97961288278748 98.78635642520385,166.23108065521956 99.58593336859485,165.999915248045 99.66208355367417,165.7247176930905 99.50978318351554,165.42750355039607 100.10946589102969,164.9211368410397 101.05182443151716,165.84580470319634 101.4420941300923,165.9008442086415 103.13643574825255,167.728139950661 104.00264410366071,167.51899320109078 104.8878900053096,167.59604731357103 105.99206768907607,168.36658543135854 106.77260708616814,169.13711808182416 108.09571655205218,169.7975702880285 108.58117398200557,169.31323906290345 109.34267583291512,169.0600650628112 109.95187731360784,168.39960837135004 111.70333157060668,167.43093129132467 112.82654680061387,167.69511680643336 113.0359598096693,168.26751655107364 114.00687466951786,168.31154717569007 114.56848228449235,168.2014705806796 115.31094658910297,167.47496225511713 116.27234267583117,167.26581501796318 117.46218931779731,168.2785242089085 118.1094658910879,168.12441689775733 118.97567424637964,168.14643224133033 119.87995769432746,167.82720932300435 120.58434690645663,167.87124012615095 121.61237440508557,166.990620671153 122.20253833953757,167.07868293798674 122.79270227393135,167.58503958658548 123.07826546800788,168.49867713116691 123.38286620838335,168.5647229208189 124.12533051293576,169.21417104620923 124.42041248013265,170.48003334816167 125.21998942358186,170.93133720962942 125.84822845057352,172.38430275700375 126.61924907454522,173.28689277866943 126.4669487043866,173.44099276442284 127.0,174.04638344893465 125.7435219460167,175.29017553999438 125.42940243257908,176.55596702720504 124.73453199362848,177.21637412133714 124.70597567426739,177.90979724887438 124.44896879955195,178.6252291694327 124.46800634585088,179.37367598165292 124.25859333685366,179.72588446182635 123.85880486515816,179.97903360163764 123.81121099949814,180.39727871400828 124.0872554203961,180.5623750256127 123.41142252774443,181.22275776296738 123.36382866208442,181.82810507894465 122.95452141721034,182.44445524407638 122.78318350075278,183.3689739352776 122.97355896350928,184.26046665071772 123.24008461134508,184.56863527067617 123.19249074562686,184.7777491935194 122.99259650980821,185.14094610291068 121.393442622968,185.63621265901747 120.31782125856262,185.40508854713698 120.20359598094365,186.35159369878966 120.29878371232189,186.5827157972235 119.03278688527644,188.18955108124646 118.70914859866025,188.32161867790273 118.47117927024374,190.08250462800788 117.58593336859485,190.2695970831628 117.17662612372078,189.9064173171355 116.2628239027108,189.4772033013869 116.5293495504884,189.79636260292318 116.31041776837083,189.7853571253654 116.31041776837083,190.11552096705418 116.79587519832421,191.45817692144192 116.31041776837083,191.7112987263099 115.5965097831795,191.5902405453744 115.17768376518507,191.67828287215525 113.92120571125997,192.95488859478792 114.34955050237477,193.8132874584844 115.28239026968367,194.67167954175238 114.00687466951786,195.07886315896758 112.5505023796577,194.93579881865298 110.81808566895779,193.34006841077644 110.46589106292231,192.73478522981168 110.47540983604267,193.19700178135827 110.46589106292231,192.95488859478792 109.799576943391,191.88738311242923 109.9328397673089,190.45668921615288 109.09518773137825,188.17854544094007 108.34320465358905,184.24946061242372 108.04812268639216,184.19443040413898 104.59280803811271,184.9428388482993 103.95505023794249,185.39408262479992 102.82231623481493,186.6487505921832 101.72765732411062,187.32010206282575 98.6626123743481,188.2225679954572 97.196721311484,188.27759616351977 95.65468006348237,189.1800541434277 90.21946060290793,190.81986714299273 89.65785298787523,190.7318241207031 89.14383923850255,191.17203851892555 84.74616604967741,192.52568662013073 83.3088313061744,192.78981111283065 80.05341089371359,192.9438834370958 74.82760444213636,193.50514505679894 74.3611845584237,193.1749915139444 73.6948704389506,192.00844096233777 73.3997884716955,191.06198508655507 73.20941300899722,190.0054664646159 73.0,186.31857621604286 73.21893178211758,186.23052954625018 75.03701745107537,186.61573319973832 76.8170280274935,186.5607041900148" stroke="#4dd2ff" stroke-linecap="round" stroke-linejoin="round" stroke-width="0.5"><title>2022-06-11 16.6km</title></polyline><polyline fill="none" points="135.9681449093623,192.9299643678969 138.63272954401327,192.656977513092 143.45596502179978,193.0664576501731 144.75452841969673,192.3059938452061 144.77139287942555,191.72101964324247 145.04122423479566,191.9550095374143 146.13741411617957,191.83801462587144 148.14428482198855,192.5594821140112 149.07183010608424,192.42298847228813 150.89319175522542,189.01061597334046 153.9287945034448,187.04116202720616 154.63710181141505,186.90466447232757 155.54778263589833,187.17765948529996 156.2054965646239,186.7291674738226 159.5783885071869,185.83218031577417 160.1855090567842,184.83768966713978 161.33229231723817,183.804193940392 161.9562773266225,183.4726941355475 163.05246720800642,183.7261940376775 164.8906933167018,182.61469198937993 165.85196752025513,182.63419208062987 166.81324172392488,183.2386939295102 167.47095565270865,182.94619327198598 167.28544659586623,183.19969386758748 169.0224859463051,180.99617752776248 170.52342286071507,180.489170197965 171.50156152411364,178.73413451174565 171.6364772017696,176.04304870755004 172.14241099305218,175.4775258913287 172.63148032483878,173.99545821249194 173.69394128670683,172.88389996284968 173.2554653341649,171.01178734477435 172.12554653343977,169.10065359373402 174.19987507804763,166.7214605640038 174.2673329169047,165.7658747551177 175.0936914428603,163.77668091085798 176.00437226734357,163.09410965666757 176.91505309182685,161.57294215020374 178.60149906307925,160.0322602371598 178.11242973140907,158.17952514225908 178.50031230482273,157.2433995725587 178.66895690199453,156.91185400764516 180.0855715178186,156.59981060116843 180.2542161149904,156.0732362049166 179.95065584010445,155.58566603448708 180.94565896311542,154.70803661373793 184.35227982507786,157.67245769075816 185.0437226733775,158.64758621896908 185.26296064961934,159.66171464549552 184.52092442224966,162.47004239096714 184.43660212366376,164.1082146463741 185.7183010618901,166.38993133117037 187.0,169.58818951729336 185.650843223033,170.095225567522 185.7183010618901,171.1677974252234 184.75702685822034,171.10929365991615 184.7232979387627,170.6997668043332 184.74016239854973,171.01178734477435 183.98126171145122,171.83083885627275 183.89693941292353,172.7668934577814 184.2173641474219,173.2349190510722 183.84634603373706,174.13196492333373 184.6221111805644,174.79499614131055 185.0437226733775,174.8339979065786 184.40287320426432,176.56956845633977 182.1093066833564,176.37456130991632 181.772017489071,176.56956845633977 181.21549031854374,178.85113738871587 180.64209868840408,184.56469133522478 179.9169269206468,187.74314792320365 178.60149906307925,189.40060446356074 176.13928794499952,190.84355500699894 171.67020612116903,192.5594821140112 167.7576514678076,194.47038293567311 162.9681449093623,197.23920557284146 162.2935665208497,198.5651065371203 162.49594003747916,200.2224699006474 161.99000624613836,201.08039356663357 153.57464084943058,203.6736395861517 151.36539662710857,204.06359837233322 145.74953154282412,204.35606694361195 136.4740787007031,205.29196338624752 135.74890693312045,205.01899406044686 134.41661461576587,202.8547235641454 133.6071205495973,200.2224699006474 133.0,192.52048394053418 133.35415365395602,192.36449116760923 143.4728294815286,193.0664576501731 137.60399750154465,192.87146721733734" stroke="#4dd2ff" stroke-linecap="round" stroke-linejoin="round" stroke-width="0.5"><title>2022-05-14 10.8km</title></polyline><polyline fill="none" points="53.63865915470524,256.9155437473819 52.74492296227254,256.15068164984405 52.03483119298471,255.86739832726016 51.38595423143124,254.0827001655416 51.45941200066591,253.501960125388 51.14109500061022,251.7030670952954 48.82717526971828,248.79929317432106 48.447643461986445,248.03438656937215 48.32521384663414,246.8728537029674 47.27231915429002,245.89545879607613 46.905030308058485,245.04554461345833 47.00297400041018,243.77066362761252 46.83157253888203,243.2182115809992 46.37858296191553,242.19829436046712 45.950079308007844,241.99997625693504 45.986808192683384,240.83839312949567 46.427554808033165,239.4926444809389 45.88886450033169,237.63690662066801 46.24391038500471,237.14109461472253 46.3540970387985,235.45532060677942 46.672414038854185,235.15782896027667 46.59895626956131,234.9170019243611 46.92951623117551,234.78950508990965 46.08475188497687,233.95368962119392 45.58279046189273,234.23701746006554 45.82764969259733,235.0161660483427 44.9828853464569,234.9878334487148 44.56662465410773,233.74119336419972 44.64008242334239,233.37286575157486 43.55045884632273,232.80620598598034 42.32616269245045,231.07787947637553 41.469155384693295,230.34120920591522 41.236539115488995,229.98703942113207 41.18756726925494,228.91035775022465 40.220373307703994,227.8761688422528 40.195887384645175,227.59282807650743 40.41626069234917,227.39448919786082 41.60382796160411,227.28115256907768 41.567099077044986,226.82780513251782 41.00392284622649,226.33195468578197 40.404017730790656,226.23278438475973 39.16747861530166,225.0994045057887 39.155235653801356,224.78772342360753 39.57149634609232,224.19269396795426 39.40009488456417,223.0167949553288 39.57149634609232,221.0899992261402 39.22869342297781,219.7298920872272 39.96327111532446,218.90815425943583 39.93878519232385,216.683770660733 38.92261938453885,213.949288675125 38.383929076837376,213.18419084555353 38.01664023066405,213.21252787711273 38.469629807572346,213.0 38.28598538454389,213.39671844177064 37.74729507678421,213.39671844177064 37.367763269052375,213.9067833503941 36.2536537690321,213.949288675125 35.89860788441729,213.75093038192426 35.89860788441729,213.5384033258888 34.69879765348742,214.119309844682 32.29917719186051,214.5018567177467 30.438247037876863,215.49364001723006 29.189464960887562,217.61886617996788 29.116007191652898,218.171419674356 28.4426443069824,219.10650521313073 28.283485807012767,219.00732977157168 28.38142949930625,219.5032062738028 27.181619268434588,220.59412836897536 26.887788191554137,221.50086231429304 26.838816345320083,222.98845991695998 26.985731883905828,223.07346501477878 26.92451707617147,223.73933648744423 27.291805922286585,224.2918657202681 27.35302073007915,225.26941207509662 27.659094768518116,225.70859733608086 28.601802807010245,226.147781213469 30.2546026147902,228.52785041800234 30.31581742252456,229.0803606721165 29.86282784555806,229.67536926624598 29.740398230147548,230.39787628802878 28.5528309608344,230.75204502916313 28.846662037831265,231.5453797444643 28.71198946092045,232.12621122717974 27.499936268490274,233.4153651411034 27.916196960839443,233.7978590644052 27.977411768573802,234.49201202280528 27.512179230048787,235.24282663833583 26.949002999230288,235.32782426460471 26.863302268495318,235.8803075721662 26.618443037732504,236.00780340924393 26.36134084535297,236.74444374053564 26.851059306936804,237.45274808141403 26.679657845408656,238.57186160665879 26.80208746076096,238.26021064125234 26.936760037729982,238.7276868281915 28.161056191602256,239.94595073946402 28.014140653191134,240.64007309195586 28.3202146916301,241.54667667548347 29.018063499359414,243.00572944182204 29.495538999384735,243.26070796999556 29.556753807060886,244.76223873488198 29.69142638402991,245.1730320710485 29.997500422527082,245.3855109080614 29.887313768616877,245.6121546440554 30.205630768672563,245.66881552046107 30.328060384083074,246.24958817682636 30.75656403793255,245.56965897159535 32.98478303808952,245.7254763739038 34.13562142272713,246.26375333336182 34.515153230400756,246.6745422467502 35.04160057666013,246.70287247205852 35.825150115124416,247.09949502187374 36.33935449976707,247.83607676479733 36.90253073058557,248.1335413659108 37.23309069214156,249.15341518189234 38.1880416921922,250.51323533579125 37.759538038342725,251.26396369906433 38.15131280757487,252.00052344925643 38.383929076837376,252.38296640082262 38.910376422980335,252.52461167234287 38.94710530759767,252.99204004772764 39.47355265379883,253.1195202418894 40.68560584622901,256.0515325523593 41.322239846223965,256.3064872321265 41.66504276933847,256.10818918817677 41.71401461545611,256.717246569242 41.97111680783564,256.9155437473819 44.468680961756036,257.43961350416066 45.631762308010366,257.04302035592264 48.55783011589665,257.1138406436512 49.30465076980181,256.6180978744669 50.026985500589944,256.5897696630418 51.43492607760709,255.9523833844578 52.08380303916056,256.1648458008858 52.695951116096694,256.7880670223967 53.07548292382853,256.8872155963618 53.09996884688735,257.43961350416066 51.69202826987021,258.91266389755765 48.006896846636664,264.06821778949234 45.11755792336771,267.0" stroke="#4dd2ff" stroke-linecap="round" stroke-linejoin="round" stroke-width="0.5"><title>2022-05-04 10.9km</title></polyline><polyline fill="none" points="114.12710593780503,265.0538872524776 113.78472086240072,264.9333308610949 113.36790424882201,263.348867467299 114.4397183979745,260.88603085021896 112.8468834819505,260.50712973480404 112.608702559839,259.16374623165757 110.0184850327787,256.373608030437 109.58678211161168,255.63300808236818 109.2592833438539,253.91067011440464 108.11303765652701,252.86003536391945 107.63667581253685,251.75772305435385 107.74087996588787,250.72429875617672 107.53247165912762,249.63919646464637 106.50531643285649,247.27950560752652 106.96679196931655,245.22982047472033 106.4308848947403,243.0423140501225 106.95190566167003,241.81936508763465 106.95190566167003,240.1830111281015 106.10338612698251,238.78779159364058 106.23736289562657,236.51407589716837 106.04384089645464,239.04616644777707 106.37133966421243,239.63181465939851 105.28463920747163,239.5973648206127 104.79339105583495,238.23659058866906 104.83804997865809,237.71983801890747 103.70669059903594,237.22030903752602 102.15851460577687,235.10160078995978 100.87829214998055,233.8269180294883 100.65499753551558,232.27661526799784 99.47897923295386,231.03636285019456 99.77670538559323,230.45068494300358 100.95272368803853,230.31287808253546 101.14624568715226,229.86500501216506 100.62522492028074,229.33100095859845 99.33011615672149,228.69363907948718 98.18387046951102,227.55671734470525 98.67511862120591,226.5231455136818 98.5113692372106,225.24839824192168 98.8388680050848,222.85391461045947 98.36250616097823,221.06233638756385 99.1812530804309,220.23544774316542 99.1812530804309,219.70141334952496 98.97284477367066,219.52914383128518 99.24079831090057,217.9787102873088 99.0026173889637,216.70389874726243 98.55602816015016,217.58248610601004 98.28807462280383,217.2551697792078 98.02012108557392,217.58248610601004 97.45444139576284,217.65139472579176 98.13921154657146,217.70307617229992 99.07704892702168,216.85894390626345 98.64534600585466,215.4979871128453 97.1716015508282,213.0 96.07001478644088,214.06810934074747 94.55161140847486,214.06810934074747 94.13479479495436,213.63742090047162 92.85457233904162,214.30929438916792 90.9937838857295,214.7572085684078 89.87731081369566,214.7572085684078 87.65925097721629,215.96312547413982 85.54539529426256,219.92536346144334 85.18812391121173,220.4077165434137 84.90528406627709,220.08040567324497 85.23278283403488,220.80393411955447 83.72926576377358,222.2682084289263 83.29756284260657,223.45684533019084 83.28267653490184,225.9374520117708 83.77392468665494,226.91934879381733 83.92278776288731,227.98737041416462 86.21527913748287,230.07171580704744 87.54016051627696,232.32829225515889 87.01913974934723,233.03454283392057 86.81073144252878,234.08530044466897 85.27744175697444,234.55038779949246 85.61982683237875,236.0489939297113 84.84573883580742,237.04805732336536 84.02699191635475,237.61648731597234 84.54801268328447,238.39161605249683 84.56289899087278,239.11506634243415 84.33960437646601,239.56291497481288 83.35710807307623,240.0968867980264 82.83608730620472,240.92367856102646 82.67233792232582,241.9571625948156 83.26779022737173,242.85284366155975 83.08915453584632,244.04133623365487 84.93505668162834,245.78099874439067 84.78619360527955,246.79722898187174 85.88778036966687,249.44973344766186 86.72141359682428,250.15591270757432 86.69164098153124,252.1194200707978 87.12334390269825,252.2572092074697 87.37641113239806,253.34229474610765 88.0760675908532,252.5500107511034 89.74333404499339,252.5500107511034 91.45525942213135,253.08394167623192 92.64616403228138,253.92789358070877 93.91150018054759,254.25513910745212 95.47456248133676,255.75357108502067 95.60853925003903,256.42527767355205 96.97807955165626,258.4576044824207 96.62080816860544,259.5770961352391 97.24603308894439,260.61046648659976 97.87125800928334,261.0410356079956 97.9159169322229,261.52327172624064 98.63045969832456,261.7299439285998 99.91068215417909,264.9505532079784 100.64011122786906,265.5533342468116 101.3397676863824,265.39833361288765 101.13135937962215,265.93222408910515 101.28022245579632,266.2422242395696 102.51578598888591,266.3111130849866 103.11123829393182,266.6900012344704 103.76623582956381,266.67277906421805 104.55521013372345,267.0 106.19270397274522,266.44889069181227 107.11565504560713,266.65555689224857 109.37837380485144,266.6383347184601 113.39767686417326,265.1227765805379 114.29085532168392,265.19166588060034 114.91608024208108,265.5533342468116 115.4371010089526,266.0355575355352 114.97562547260895,266.5177794532501 116.28562054375652,265.4844450936944 117.32766207761597,265.43277821039374" stroke="#4dd2ff" stroke-linecap="round" stroke-linejoin="round" stroke-width="0.5"><title>2022-04-17 11.0km</title></polyline></svg>